<svg id="Capa_1" enable-background="new 0 0 516.601 516.601" height="512" viewBox="0 0 516.601 516.601" width="512" xmlns="http://www.w3.org/2000/svg"><g><path d="m63.301 59.901v390.8h390v-390.8z" fill="#c6f243"/><path d="m258.301 59.901h195v390.8h-195z" fill="#8cd96b"/><path d="m93.301 89.901h330v330.8h-330z" fill="#663d3d"/><path d="m258.301 89.901h165v330.8h-165z" fill="#4d2e2e"/><path d="m98.354 95.354h319.894v319.894h-319.894z" fill="#ffdf40" transform="matrix(.707 -.707 .707 .707 -104.87 257.422)"/><path d="m484.5 255.301-226.199 226.199v-452.399z" fill="#ffbe40"/><path d="m258.301 114-141.301 141.301 141.301 141.301 141.301-141.301z" fill="#ff5959"/><path d="m399.601 255.301-141.3 141.3v-282.601z" fill="#e63a57"/><path d="m188.386 185.386h139.83v139.83h-139.83z" fill="#ffdf40" transform="matrix(.707 -.707 .707 .707 -104.87 257.421)"/><path d="m357.171 255.301-98.87 98.87v-197.74z" fill="#ffbe40"/><path d="m113.301 366.512-111.211-111.211 111.211-111.211 111.211 111.211z" fill="#6cf"/><path d="m64.663 206.663h97.276v97.276h-97.276z" fill="#663d3d" transform="matrix(.707 -.707 .707 .707 -147.34 154.891)"/><path d="m403.301 366.512-111.211-111.211 111.211-111.211 111.211 111.211z" fill="#59abff"/><path d="m354.663 206.663h97.276v97.276h-97.276z" fill="#4d2e2e" transform="matrix(.707 -.707 .707 .707 -62.401 359.952)"/><path d="m258.301 0-111.301 111.301 111.301 111.301 111.301-111.301z" fill="#6cf"/><path d="m258.301 294-111.301 111.301 111.301 111.301 111.301-111.301z" fill="#6cf"/><path d="m369.601 111.301-111.3 111.3v-222.601z" fill="#59abff"/><path d="m98.302 240.302h29.997v29.997h-29.997z" fill="#ff7f40" transform="matrix(.707 -.707 .707 .707 -147.34 154.892)"/><path d="m243.301 238.801h30v30h-30z" fill="#ff5959"/><path d="m388.302 240.302h29.997v29.997h-29.997z" fill="#f25a3c" transform="matrix(.707 -.707 .707 .707 -62.401 359.953)"/><path d="m258.301 238.801h15v30h-15z" fill="#e63a57"/><path d="m258.301 294 111.3 111.301-111.3 111.3z" fill="#59abff"/><path d="m209.602 62.602h97.397v97.397h-97.397z" fill="#663d3d" transform="matrix(.707 -.707 .707 .707 -3.047 215.245)"/><path d="m327.171 111.301-68.87 68.87v-137.74z" fill="#4d2e2e"/><path d="m243.239 96.239h30.124v30.124h-30.124z" fill="#ff7f40" transform="matrix(.707 -.707 .707 .707 -3.047 215.245)"/><path d="m279.601 111.301-21.3 21.3v-42.601z" fill="#f25a3c"/><path d="m209.602 356.602h97.397v97.397h-97.397z" fill="#663d3d" transform="matrix(.707 -.707 .707 .707 -210.936 301.356)"/><path d="m243.239 390.239h30.124v30.124h-30.124z" fill="#ff7f40" transform="matrix(.707 -.707 .707 .707 -210.936 301.356)"/><path d="m327.171 405.301-68.87 68.87v-137.74z" fill="#4d2e2e"/><path d="m258.301 384 21.3 21.301-21.3 21.3z" fill="#f25a3c"/></g></svg>