<svg id="Capa_1" enable-background="new 0 0 512 512" height="512" viewBox="0 0 512 512" width="512" xmlns="http://www.w3.org/2000/svg"><g><path d="m506 248.265c-14.399-21.301-33.301-36-57.601-42.9 17.701-18.001 28.801-41.7 30.601-68.401l-.3-9.3-8.399-4.2c-23.101-11.4-48.9-13.5-73.5-7.2 6.301-24.6 4.2-50.099-6.899-72.599l-4.2-10.201-10.8.601c-25.801 1.8-49.2 12.9-67.202 30.601-6.899-24.3-21.599-44.265-42.599-58.366l-8.701-6.3-.3.3-8.7 5.7c-21.301 14.399-36 34.365-42.9 58.665-18.001-17.701-41.7-28.801-68.401-30.601l-9.3.3-4.2 8.399c-11.4 23.101-13.5 48.9-7.2 73.5-24.6-6.301-50.099-4.2-72.599 6.899l-10.201 4.2.601 10.8c1.8 25.801 12.9 49.2 30.601 67.202-24.3 6.899-43.401 21.599-57.502 42.599l-6.299 8.701 6 9c14.399 21.301 33.5 36 57.8 42.9-17.7 18.001-28.8 41.7-30.6 68.4l.3 9.3 8.399 4.2c14.7 7.5 30.901 11.1 46.8 11.1 9 0 18.001-1.5 26.7-3.9-6.301 24.6-4.2 50.099 6.899 72.599l4.2 10.201 10.8-.601c25.801-1.8 49.2-12.9 67.202-30.601 6.899 24.3 21.599 42.337 42.599 56.438l8.699 6.299.3-.3 8.699-5.7c21.301-14.399 36-32.436 42.9-56.736 18.001 17.701 41.7 28.801 68.401 30.601l9.3-.3 4.2-8.399c11.4-23.101 13.5-48.9 7.2-73.5 9 2.401 17.999 3.9 27.001 3.9 15.599 0 31.5-3.6 45.599-10.8l10.201-4.2-.601-10.8c-1.8-25.801-12.9-49.2-30.601-67.202 24.3-6.899 43.201-21.599 57.302-42.599l6.299-8.699z" fill="#ff5959"/><path d="m512 257.265-6.299 8.699c-14.101 21-33.003 35.7-57.302 42.599 17.701 18.001 28.801 41.4 30.601 67.202l.601 10.8-10.201 4.2c-14.099 7.2-30 10.8-45.599 10.8-9.001 0-18.001-1.5-27.001-3.9 6.301 24.6 4.2 50.4-7.2 73.5l-4.2 8.399-9.3.3c-26.7-1.8-50.4-12.9-68.401-30.601-6.899 24.3-21.599 42.337-42.9 56.736l-8.699 5.7v-511.399l.3-.3 8.699 6.299c21 14.101 35.7 34.066 42.599 58.366 18.001-17.701 41.4-28.801 67.202-30.601l10.8-.601 4.2 10.201c11.1 22.5 13.2 47.999 6.899 72.599 24.6-6.301 50.4-4.2 73.5 7.2l8.399 4.2.3 9.3c-1.8 26.7-12.9 50.4-30.601 68.401 24.3 6.899 43.201 21.599 57.601 42.9z" fill="#e63a57"/><path d="m427.1 329.564c10.499 10.801 17.401 23.701 20.4 38.101-7.8 2.701-15.901 3.9-23.699 3.9-5.7 0-12.001-.901-19.501-3.001l-49.501-12.9 12.9 49.501c3.9 14.7 3.602 29.7-1.199 43.5-13.5-3.001-26.7-9.901-37.8-21l-36.299-35.7-13.801 49.2c-3.9 14.7-11.7 27.299-22.5 36.899-10.8-9.901-18.6-22.5-22.5-36.899l-13.5-49.2-36.599 36c-10.801 10.499-23.701 17.401-37.8 20.4-4.801-14.101-5.099-28.801-1.199-42.9l12.9-49.801-49.501 12.9c-7.2 2.1-13.5 3.001-19.2 3.001-8.099 0-16.5-1.5-24.3-4.2 3.001-13.2 9.901-26.7 21-37.8l35.7-36.299-49.2-13.801c-14.7-3.9-27.299-11.7-36.899-22.5 9.901-10.8 22.5-18.6 36.899-22.5l49.2-13.5-36-36.599c-10.499-10.801-17.401-23.701-20.4-37.8 7.5-2.701 15.3-3.9 23.101-3.9 6.599 0 13.2.899 20.099 2.701l49.501 12.9-12.9-49.501c-3.9-14.7-3.602-29.7 1.199-43.5 13.5 3.001 26.7 9.901 37.8 21l36.299 35.7 13.801-49.2c3.9-14.7 11.7-27.299 22.5-36.899 10.8 9.901 18.6 22.5 22.5 36.899l13.5 49.2 36.599-36c10.801-10.499 23.701-17.401 37.8-20.4 4.801 14.101 5.099 28.801 1.199 43.2l-12.9 49.501 49.501-12.9c6.599-1.802 13.2-2.701 19.799-2.701 8.101 0 16.201 1.199 23.701 3.9-3.001 13.5-9.901 26.7-21 37.8l-35.7 36.299 49.2 13.801c14.7 3.9 27.299 11.7 36.899 22.5-9.901 10.8-22.5 18.6-36.899 22.5l-49.2 13.5z" fill="#ffdf40"/><path d="m427.1 329.564c10.499 10.801 17.401 23.701 20.4 38.101-7.8 2.701-15.901 3.9-23.699 3.9-5.7 0-12.001-.901-19.501-3.001l-49.501-12.9 12.9 49.501c3.9 14.7 3.602 29.7-1.199 43.5-13.5-3.001-26.7-9.901-37.8-21l-36.299-35.7-13.801 49.2c-3.9 14.7-11.7 27.299-22.5 36.899v-442.2c10.8 9.901 18.6 22.5 22.5 36.899l13.5 49.2 36.599-36c10.801-10.499 23.701-17.401 37.8-20.4 4.801 14.101 5.099 28.801 1.199 43.2l-12.9 49.501 49.501-12.9c6.599-1.802 13.2-2.701 19.799-2.701 8.101 0 16.201 1.199 23.701 3.9-3.001 13.5-9.901 26.7-21 37.8l-35.7 36.299 49.2 13.801c14.7 3.9 27.299 11.7 36.899 22.5-9.901 10.8-22.5 18.6-36.899 22.5l-49.2 13.5z" fill="#ffbe40"/><path d="m447.199 307.364-3.3-9.3c-6-17.1-17.401-31.199-32.401-41.1 15-9.901 26.7-24.3 32.701-41.7l2.699-9.899-7.5-6.601c-13.799-12.001-30.899-18.6-48.6-19.501 7.8-16.199 10.8-34.499 7.2-52.5l-2.399-9.899-9.901-2.1c-17.701-3.3-36-.3-51.899 7.5-1.201-18.001-7.8-35.099-20.101-49.2l-7.2-7.2-9.3 3.3c-17.1 6-31.199 17.401-41.1 32.401-9.9-15-24.3-26.7-41.7-32.701l-9.899-2.699-6.601 7.5c-12.001 13.799-18.6 30.899-19.501 48.6-16.199-7.8-34.499-10.8-52.5-7.2l-9.897 2.399-2.1 9.901c-3.3 17.701-.3 36 7.5 51.899-18.001 1.201-35.099 7.8-49.2 20.101l-7.2 7.2 3.3 9.3c6 17.1 17.401 31.199 32.401 41.1-15 9.901-26.7 24.3-32.701 41.7l-2.699 9.899 7.5 6.601c13.799 12.001 30.899 18.3 48.9 19.2-8.101 16.199-11.1 34.499-7.5 52.8l2.399 9.899 9.901 2.1c5.099.901 9.901 1.5 15 1.5 12.9 0 25.201-3.9 36.899-9.6 1.201 18.001 7.8 35.7 20.101 49.801l7.2 7.2 9.3-3.3c17.1-6 31.199-17.401 41.1-32.401 9.901 15 24.3 26.7 41.7 32.701l9.899 2.699 6.601-7.5c12.001-13.799 18.6-31.199 19.501-49.2 11.699 5.7 24 9.302 37.2 9.302 5.099 0 10.199-.3 15.3-1.501l9.899-2.399 2.1-9.901c3.3-18.001.3-36-7.8-52.2 18.001-1.201 35.4-7.5 49.501-19.801z" fill="#fcf"/><path d="m440 314.564c-14.101 12.301-31.5 18.6-49.501 19.801 8.101 16.199 11.1 34.199 7.8 52.2l-2.1 9.901-9.899 2.399c-5.101 1.201-10.201 1.501-15.3 1.501-13.2 0-25.501-3.602-37.2-9.302-.901 18.001-7.5 35.402-19.501 49.2l-6.601 7.5-9.899-2.699c-17.401-6-31.8-17.701-41.7-32.701v-310.8c9.901-15 24-26.4 41.1-32.401l9.3-3.3 7.2 7.2c12.301 14.101 18.9 31.199 20.101 49.2 15.899-7.8 34.199-10.8 51.899-7.5l9.901 2.1 2.399 9.899c3.6 18.001.601 36.301-7.2 52.5 17.701.901 34.801 7.5 48.6 19.501l7.5 6.601-2.699 9.899c-6 17.401-17.701 31.8-32.701 41.7 15 9.901 26.4 24 32.401 41.1l3.3 9.3z" fill="#ffb3e6"/><path d="m411.199 298.365c-6.299 3.3-14.099 5.7-22.5 6l-45.3 2.999 20.402 40.501c3.6 7.2 5.7 15 5.7 22.5-6.901-.3-14.401-2.401-22.202-6.301l-41.1-20.4-2.399 45.599c-.3 8.401-2.401 16.201-6.301 22.8-6-3.9-11.7-9.3-16.5-16.199l-24.901-37.8-24.9 37.8c-4.499 6.899-10.199 12.299-16.8 16.199-3.3-6.299-5.4-14.399-6-22.8l-2.398-45.598-41.1 20.4c-7.8 4.2-15.3 6.301-22.5 6.301.298-7.202 2.399-15 5.999-22.5l20.402-40.801-45.3-2.399c-8.401-.601-15.901-2.701-22.5-6.301 3.9-6 9.3-11.7 16.199-16.5l37.8-24.901-37.8-24.901c-6.899-4.499-12.299-10.199-16.199-16.8 6.299-3.3 14.099-5.4 22.5-6l45-2.999-20.101-40.499c-3.6-7.202-5.7-14.702-5.7-22.202 7.5.3 15 2.1 22.202 5.7l40.8 20.101 2.699-45.3c.3-8.101 2.401-15.601 6.301-22.2 6 3.9 11.7 9.3 16.5 16.199l24.9 37.8 24.901-37.8c4.499-6.899 10.199-12.299 16.8-16.199 3.3 6.299 5.4 14.099 6 22.5l2.999 45.3 40.499-20.402c7.202-3.6 14.702-5.7 22.5-5.7-.298 7.202-2.399 15-5.999 22.202l-20.101 40.8 45.3 2.699c8.101.3 15.601 2.401 22.2 6.301-3.9 6-9.3 11.7-16.199 16.5l-37.8 24.901 37.8 24.901c6.897 4.498 12.297 10.198 16.197 16.499z" fill="#4d4d80"/><path d="m411.199 298.365c-6.299 3.3-14.099 5.7-22.5 6l-45.3 2.999 20.402 40.501c3.6 7.2 5.7 15 5.7 22.5-6.901-.3-14.401-2.401-22.202-6.301l-41.1-20.4-2.399 45.599c-.3 8.401-2.401 16.201-6.301 22.8-6-3.9-11.7-9.3-16.5-16.199l-24.901-37.8v-202.2l24.901-37.8c4.499-6.899 10.199-12.299 16.8-16.199 3.3 6.299 5.4 14.099 6 22.5l2.999 45.3 40.499-20.402c7.202-3.6 14.702-5.7 22.5-5.7-.298 7.202-2.399 15-5.999 22.202l-20.101 40.8 45.3 2.699c8.101.3 15.601 2.401 22.2 6.301-3.9 6-9.3 11.7-16.199 16.5l-37.8 24.901 37.8 24.901c6.901 4.497 12.301 10.197 16.201 16.498z" fill="#443d66"/><path d="m256.1 151.964c-57.9 0-105 47.1-105 105s47.1 105 105 105 105-47.1 105-105-47.101-105-105-105z" fill="#ffdf40"/><path d="m361.1 256.964c0 57.9-47.1 105-105 105v-210c57.899 0 105 47.101 105 105z" fill="#ffbe40"/><circle cx="256.1" cy="256.964" fill="#ff5959" r="75"/><path d="m331.1 256.964c0 41.4-33.6 75-75 75v-150c41.4 0 75 33.6 75 75z" fill="#e63a57"/><path d="m256.1 211.964c-24.9 0-45 20.099-45 45s20.099 45 45 45 45-20.099 45-45-20.1-45-45-45z" fill="#4d4d80"/><path d="m301.1 256.964c0 24.901-20.099 45-45 45v-90c24.9 0 45 20.1 45 45z" fill="#443d66"/></g></svg>