<svg id="Capa_1" enable-background="new 0 0 512 512" height="512" viewBox="0 0 512 512" width="512" xmlns="http://www.w3.org/2000/svg"><g><path d="m494.2 192.1c-.601-23.101-6.301-44.399-17.401-63.6s-26.7-34.799-46.5-46.8c-12.001-19.799-27.9-35.4-46.8-46.5-19.2-11.1-40.499-16.8-63.6-17.401-20.399-11.099-42.3-17.799-63.899-17.799s-43.5 6.7-63.9 17.8c-23.101.601-44.399 6.301-63.6 17.401-18.9 11.1-34.799 26.7-46.8 46.5-19.799 12.001-35.4 27.9-46.5 46.8-11.1 19.2-16.8 40.499-17.401 63.6-11.099 20.399-17.799 42-17.799 63.899s6.7 43.5 17.8 63.9c.601 23.101 6.301 44.399 17.401 63.6 11.1 18.9 26.7 34.799 46.5 46.8 12.001 19.799 27.9 35.4 46.8 46.5 19.2 11.1 40.499 16.8 63.6 17.401 20.4 11.1 42.001 17.8 63.9 17.8s43.5-6.7 63.9-17.8c23.101-.601 44.399-6.301 63.6-17.401 18.9-11.1 34.799-26.7 46.8-46.5 19.799-12.001 35.4-27.599 46.5-46.8s16.8-40.499 17.401-63.6c11.1-20.4 17.8-42.001 17.8-63.9s-6.702-43.5-17.802-63.9z" fill="#ffdf40"/><path d="m512 256c0 21.899-6.7 43.5-17.8 63.9-.601 23.101-6.301 44.399-17.401 63.6s-26.7 34.799-46.5 46.8c-12.001 19.799-27.9 35.4-46.8 46.5-19.2 11.1-40.499 16.8-63.6 17.401-20.399 11.099-42 17.799-63.899 17.799v-512c21.599 0 43.5 6.7 63.9 17.8 23.101.601 44.399 6.301 63.6 17.401 18.9 11.1 34.799 26.7 46.8 46.5 19.799 12.001 35.4 27.599 46.5 46.8s16.8 40.499 17.401 63.6c11.099 20.399 17.799 42 17.799 63.899z" fill="#ffbe40"/><path d="m482 256c0 31.199-16 51.899-17.5 55.8-.901 5.7 2.699 28.2-13.5 56.7-15.601 27.001-39 37.5-42.299 39.901-3.001 3.9-13.5 26.999-40.201 42.599-27.001 15.3-52.5 12.9-56.7 13.5-4.2 1.8-24.6 17.5-55.8 17.5s-51.899-16-55.8-17.5c-5.7-.901-28.2 2.699-56.7-13.5-26.7-15.601-37.5-39-40.201-42.299-3.6-3.001-26.698-13.501-42.299-40.201-15.3-27.001-12.9-52.5-13.5-56.7-1.8-4.2-17.5-24.6-17.5-55.8s16-51.899 17.5-55.8c.901-5.7-2.699-28.2 13.5-56.7 15.601-26.7 39-37.5 42.299-40.201 3.001-3.6 13.501-26.698 40.201-42.299 27.001-15.3 52.5-12.9 56.7-13.5 3.9-1.5 24.6-17.5 55.8-17.5s51.599 15.7 55.8 17.5c5.7.901 28.2-2.699 56.7 13.5 27.001 15.601 37.5 39 40.201 42.599 5.099 3.901 25.799 11.401 42.299 39.901 15.3 26.7 12.9 52.5 13.5 56.7 1.8 4.201 17.5 24.601 17.5 55.8z" fill="#6cf"/><path d="m482 256c0 31.199-16 51.899-17.5 55.8-.901 5.7 2.699 28.2-13.5 56.7-15.601 27.001-39 37.5-42.299 39.901-3.001 3.9-13.5 26.999-40.201 42.599-27.001 15.3-52.5 12.9-56.7 13.5-4.2 1.8-24.6 17.5-55.8 17.5v-452c31.199 0 51.599 15.7 55.8 17.5 5.7.901 28.2-2.699 56.7 13.5 27.001 15.601 37.5 39 40.201 42.599 5.099 3.901 25.799 11.401 42.299 39.901 15.3 26.7 12.9 52.5 13.5 56.7 1.8 4.201 17.5 24.601 17.5 55.8z" fill="#59abff"/><path d="m451 256c0-17.701-6-34.2-17.1-47.701 2.701-17.098-.3-34.499-9-49.799s-22.5-26.7-38.699-32.701c-6-16.199-17.401-30-32.701-38.699s-32.701-11.7-49.799-9c-13.501-11.1-30.601-16.499-47.701-16.499s-34.2 5.4-47.701 16.5c-17.098-2.701-34.499.3-49.799 9s-26.7 22.5-32.701 38.699c-16.199 6-30 17.401-38.699 32.701s-11.7 32.701-9 49.799c-11.1 13.5-17.1 29.999-17.1 47.7s6 34.2 17.1 47.701c-2.701 17.098.3 34.499 9 49.799s22.5 26.7 38.699 32.701c6 16.199 17.401 30 32.701 38.699s32.701 11.7 49.799 9c13.5 11.1 30 17.1 47.701 17.1s34.2-6 47.701-17.1c17.098 2.701 34.499-.3 49.799-9s26.7-22.5 32.701-38.699c16.199-6 30-17.401 38.699-32.701s11.7-32.701 9-49.799c11.1-13.501 17.1-30 17.1-47.701z" fill="#c6f243"/><path d="m433.9 303.701c2.701 17.098-.3 34.499-9 49.799s-22.5 26.7-38.699 32.701c-6 16.199-17.401 30-32.701 38.699s-32.701 11.7-49.799 9c-13.501 11.1-30 17.1-47.701 17.1v-389.399c17.1 0 34.2 5.4 47.701 16.5 17.098-2.701 34.499.3 49.799 9s26.7 22.5 32.701 38.699c16.199 6 30 17.401 38.699 32.701s11.7 32.701 9 49.799c11.1 13.5 17.1 30 17.1 47.701s-6 34.199-17.1 47.7z" fill="#8cd96b"/><path d="m412.301 282.4c5.7-7.8 8.699-16.8 8.699-26.4s-2.999-18.6-8.699-26.4l-65.4 17.701-7.8-29.101 65.4-17.401c.899-9.598-.901-18.898-5.7-27.299-4.801-8.401-12.599-14.099-21.301-17.701l-47.401 47.1-20.999-20.999 47.1-47.401c-3.602-8.701-9.3-16.5-17.701-21.301-8.401-4.799-17.701-6.599-27.299-5.7l-17.401 65.4-29.101-7.8 17.402-64.498c-7.8-5.4-17.1-8.401-26.1-8.401s-18.3 3.001-26.1 8.401l17.401 64.499-29.101 7.8-17.401-65.4c-9.598-.899-18.898.901-27.299 5.7-8.401 4.801-14.099 12.599-17.701 21.301l47.1 47.401-20.999 20.999-47.401-47.1c-8.701 3.602-16.5 9.3-21.301 17.701-4.799 8.401-6.599 17.701-5.7 27.299l65.4 17.401-7.8 29.101-65.4-17.701c-5.699 7.799-8.698 16.799-8.698 26.399s2.999 18.6 8.699 26.4l65.4-17.701 7.8 29.101-65.4 17.401c-.899 9.598.901 18.898 5.7 27.299 4.801 8.401 12.599 14.099 21.301 17.701l47.401-47.1 20.999 20.999-47.1 47.401c3.602 8.701 9.3 16.5 17.701 21.301 8.401 4.799 17.701 6.599 27.299 5.7l17.401-65.4 29.101 7.8-17.402 64.498c7.8 5.4 17.1 8.401 26.1 8.401s18.3-3.001 26.1-8.401l-17.401-64.499 29.101-7.8 17.401 65.4c9.598.899 18.898-.901 27.299-5.7 8.401-4.801 14.099-12.599 17.701-21.301l-47.1-47.401 20.999-20.999 47.401 47.1c8.701-3.602 16.5-9.3 21.301-17.701 4.799-8.401 6.599-17.701 5.7-27.299l-65.4-17.401 7.8-29.101z" fill="#4d4d80"/><path d="m346.901 264.699-7.8 29.101 65.4 17.401c.899 9.598-.901 18.898-5.7 27.299-4.801 8.401-12.599 14.099-21.301 17.701l-47.401-47.1-20.999 20.999 47.1 47.401c-3.602 8.701-9.3 16.5-17.701 21.301-8.401 4.799-17.701 6.599-27.299 5.7l-17.401-65.4-29.101 7.8 17.402 64.498c-7.8 5.4-17.1 8.401-26.1 8.401v-327.602c9 0 18.3 3.001 26.1 8.401l-17.401 64.499 29.101 7.8 17.401-65.4c9.598-.899 18.898.901 27.299 5.7 8.401 4.801 14.099 12.599 17.701 21.301l-47.1 47.401 20.999 20.999 47.401-47.1c8.701 3.602 16.5 9.3 21.301 17.701 4.799 8.401 6.599 17.701 5.7 27.299l-65.4 17.401 7.8 29.101 65.4-17.701c5.7 7.8 8.699 16.8 8.699 26.4s-2.999 18.6-8.699 26.4z" fill="#443d66"/><path d="m256 151c-57.9 0-105 47.1-105 105s47.1 105 105 105 105-47.1 105-105-47.1-105-105-105z" fill="#ffdf40"/><path d="m361 256c0 57.9-47.1 105-105 105v-210c57.9 0 105 47.1 105 105z" fill="#ffbe40"/><circle cx="256" cy="256" fill="#ff5959" r="75"/><path d="m331 256c0 41.4-33.6 75-75 75v-150c41.4 0 75 33.6 75 75z" fill="#e63a57"/><path d="m256 211c-24.901 0-45 20.099-45 45s20.099 45 45 45 45-20.099 45-45-20.099-45-45-45z" fill="#4d4d80"/><path d="m301 256c0 24.901-20.099 45-45 45v-90c24.901 0 45 20.099 45 45z" fill="#443d66"/></g></svg>